HIERARCHY
ROOT hip
{
  OFFSET 0 0 0
  CHANNELS 6 Xposition Yposition Zposition Zrotation Yrotation Xrotation
  JOINT abdomen
  {
    OFFSET 0 20.6881 -0.73152
    CHANNELS 3 Zrotation Xrotation Yrotation
    JOINT chest
    {
      OFFSET 0 11.7043 -0.48768
      CHANNELS 3 Zrotation Xrotation Yrotation
      JOINT neck
      {
        OFFSET 0 22.1894 -2.19456
        CHANNELS 3 Zrotation Xrotation Yrotation
        JOINT head
        {
          OFFSET -0.24384 7.07133 1.2192
          CHANNELS 3 Zrotation Xrotation Yrotation
          JOINT leftEye
          {
            OFFSET 4.14528 8.04674 8.04672
            CHANNELS 3 Zrotation Xrotation Yrotation
            End Site
            {
              OFFSET 1 0 0
            }
          }
          JOINT rightEye
          {
            OFFSET -3.6576 8.04674 8.04672
            CHANNELS 3 Zrotation Xrotation Yrotation
            End Site
            {
              OFFSET 1 0 0
            }
          }
        }
      }
      JOINT rCollar
      {
        OFFSET -2.68224 19.2634 -4.8768
        CHANNELS 3 Zrotation Xrotation Yrotation
        JOINT rShldr
        {
          OFFSET -8.77824 -1.95073 1.46304
          CHANNELS 3 Zrotation Xrotation Yrotation
          JOINT rForeArm
          {
            OFFSET -28.1742 -1.7115 0.48768
            CHANNELS 3 Zrotation Xrotation Yrotation
            JOINT rHand
            {
              OFFSET -22.5879 0.773209 7.07136
              CHANNELS 3 Zrotation Xrotation Yrotation
              JOINT rThumb1
              {
                OFFSET -1.2192 -0.487915 3.41376
                CHANNELS 3 Zrotation Xrotation Yrotation
                JOINT rThumb2
                {
                  OFFSET -3.37035 -0.52449 3.41376
                  CHANNELS 3 Zrotation Xrotation Yrotation
                  End Site
                  {
                    OFFSET -1.78271 -1.18214 1.43049
                  }
                }
              }
              JOINT rIndex1
              {
                OFFSET -7.75947 0.938293 5.60832
                CHANNELS 3 Zrotation Xrotation Yrotation
                JOINT rIndex2
                {
                  OFFSET -2.54057 -0.884171 1.56538
                  CHANNELS 3 Zrotation Xrotation Yrotation
                  End Site
                  {
                    OFFSET -1.62519 -0.234802 1.16502
                  }
                }
              }
              JOINT rMid1
              {
                OFFSET -8.24714 1.18213 3.41376
                CHANNELS 3 Zrotation Xrotation Yrotation
                JOINT rMid2
                {
                  OFFSET -3.10165 -0.590103 1.0647
                  CHANNELS 3 Zrotation Xrotation Yrotation
                  End Site
                  {
                    OFFSET -2.48547 -0.328903 0.83742
                  }
                }
              }
              JOINT rRing1
              {
                OFFSET -8.82822 0.546677 1.51678
                CHANNELS 3 Zrotation Xrotation Yrotation
                JOINT rRing2
                {
                  OFFSET -2.60934 -0.819778 -0.0198488
                  CHANNELS 3 Zrotation Xrotation Yrotation
                  End Site
                  {
                    OFFSET -2.33842 -0.294052 0.168128
                  }
                }
              }
              JOINT rPinky1
              {
                OFFSET -8.27202 -0.0477905 -0.4584
                CHANNELS 3 Zrotation Xrotation Yrotation
                JOINT rPinky2
                {
                  OFFSET -1.82734 -0.647385 -0.700984
                  CHANNELS 3 Zrotation Xrotation Yrotation
                  End Site
                  {
                    OFFSET -1.69225 -0.51767 -0.607171
                  }
                }
              }
            }
          }
        }
      }
      JOINT lCollar
      {
        OFFSET 2.68224 19.2634 -4.8768
        CHANNELS 3 Zrotation Xrotation Yrotation
        JOINT lShldr
        {
          OFFSET 8.77824 -1.95073 1.46304
          CHANNELS 3 Zrotation Xrotation Yrotation
          JOINT lForeArm
          {
            OFFSET 28.1742 -1.7115 0.48768
            CHANNELS 3 Zrotation Xrotation Yrotation
            JOINT lHand
            {
              OFFSET 22.5879 0.773209 7.07136
              CHANNELS 3 Zrotation Xrotation Yrotation
              JOINT lThumb1
              {
                OFFSET 1.2192 -0.487915 3.41376
                CHANNELS 3 Zrotation Xrotation Yrotation
                JOINT lThumb2
                {
                  OFFSET 3.37035 -0.52449 3.41376
                  CHANNELS 3 Zrotation Xrotation Yrotation
                  End Site
                  {
                    OFFSET 1.78271 -1.18214 1.43049
                  }
                }
              }
              JOINT lIndex1
              {
                OFFSET 7.75947 0.938293 5.60832
                CHANNELS 3 Zrotation Xrotation Yrotation
                JOINT lIndex2
                {
                  OFFSET 2.54057 -0.884171 1.56538
                  CHANNELS 3 Zrotation Xrotation Yrotation
                  End Site
                  {
                    OFFSET 1.62519 -0.234802 1.16502
                  }
                }
              }
              JOINT lMid1
              {
                OFFSET 8.24714 1.18213 3.41376
                CHANNELS 3 Zrotation Xrotation Yrotation
                JOINT lMid2
                {
                  OFFSET 3.10165 -0.590103 1.0647
                  CHANNELS 3 Zrotation Xrotation Yrotation
                  End Site
                  {
                    OFFSET 2.48547 -0.328903 0.83742
                  }
                }
              }
              JOINT lRing1
              {
                OFFSET 8.82822 0.546677 1.51678
                CHANNELS 3 Zrotation Xrotation Yrotation
                JOINT lRing2
                {
                  OFFSET 2.60934 -0.819778 -0.0198488
                  CHANNELS 3 Zrotation Xrotation Yrotation
                  End Site
                  {
                    OFFSET 2.33842 -0.294052 0.168128
                  }
                }
              }
              JOINT lPinky1
              {
                OFFSET 8.27202 -0.0477905 -0.4584
                CHANNELS 3 Zrotation Xrotation Yrotation
                JOINT lPinky2
                {
                  OFFSET 1.82734 -0.647385 -0.700984
                  CHANNELS 3 Zrotation Xrotation Yrotation
                  End Site
                  {
                    OFFSET 1.69225 -0.51767 -0.607171
                  }
                }
              }
            }
          }
        }
      }
    }
  }
  JOINT rButtock
  {
    OFFSET -8.77824 4.35084 1.2192
    CHANNELS 3 Zrotation Xrotation Yrotation
    JOINT rThigh
    {
      OFFSET 0 -1.70687 -2.19456
      CHANNELS 3 Zrotation Xrotation Yrotation
      JOINT rShin
      {
        OFFSET 0 -36.8199 0.73152
        CHANNELS 3 Zrotation Xrotation Yrotation
        JOINT rFoot
        {
          OFFSET 0.73152 -45.1104 -5.12064
          CHANNELS 3 Zrotation Xrotation Yrotation
          End Site
          {
            OFFSET -1.1221 -3.69964 12.103
          }
        }
      }
    }
  }
  JOINT lButtock
  {
    OFFSET 8.77824 4.35084 1.2192
    CHANNELS 3 Zrotation Xrotation Yrotation
    JOINT lThigh
    {
      OFFSET 0 -1.70687 -2.19456
      CHANNELS 3 Zrotation Xrotation Yrotation
      JOINT lShin
      {
        OFFSET 0 -36.8199 0.73152
        CHANNELS 3 Zrotation Xrotation Yrotation
        JOINT lFoot
        {
          OFFSET -0.73152 -45.1104 -5.12064
          CHANNELS 3 Zrotation Xrotation Yrotation
          End Site
          {
            OFFSET 1.1221 -3.69964 12.103
          }
        }
      }
    }
  }
}
MOTION
Frames:	9
Frame Time:	0.03333
0.0 0.0 0.0 0.0 0.0 0.0 0.0 0.0 0.0 0.0 0.0 0.0 0.0 0.0 0.0 0.0 0.0 0.0 0.0 0.0 0.0 0.0 0.0 0.0 0.0 0.0 0.0 0.0 0.0 0.0 0.0 0.0 0.0 0.0 0.0 0.0 0.0 0.0 0.0 0.0 0.0 0.0 0.0 0.0 0.0 0.0 0.0 0.0 0.0 0.0 0.0 0.0 0.0 0.0 0.0 0.0 0.0 0.0 0.0 0.0 0.0 0.0 0.0 0.0 0.0 0.0 0.0 0.0 0.0 0.0 0.0 0.0 0.0 0.0 0.0 0.0 0.0 0.0 0.0 0.0 0.0 0.0 0.0 0.0 0.0 0.0 0.0 0.0 0.0 0.0 0.0 0.0 0.0 0.0 0.0 0.0 0.0 0.0 0.0 0.0 0.0 0.0 0.0 0.0 0.0 0.0 0.0 0.0 0.0 0.0 0.0 0.0 0.0 0.0 0.0 0.0 0.0 0.0 0.0 0.0 0.0 0.0 0.0 0.0 0.0 0.0 0.0 0.0 0.0 0.0 0.0 0.0
-0.5448 49.7012 0.24 11.830878 -24.241136 4.844881 -16.574807 10.451478 2.392732 2.833993 -12.184647 1.257051 -12.599881 31.361003 -118.605973 39.491518 25.959155 74.87877 0.000206 -0.0 -0.003116 0.000206 -0.0 -0.003116 -83.951385 68.258644 87.085782 -40.215517 0.662678 -2.646995 25.682922 51.016535 -73.687751 161.679106 -22.350476 145.282698 176.506398 -20.695372 88.628507 -37.437589 -24.212169 -1.385453 10.212099 -18.050498 -4.564098 -175.870738 -34.930477 106.816759 -125.643711 49.839969 115.274257 29.944625 -60.086317 6.875564 0.000488 0.063855 0.019951 -156.562688 -29.870162 175.354482 9.2143 29.589352 8.038684 -146.790012 8.124435 -142.656833 33.831473 -85.666125 55.248746 107.783935 -43.421694 75.519278 13.329251 46.955599 123.047468 156.53483 14.508644 -138.268142 85.829739 38.630463 -47.95518 163.125074 -36.834956 -80.36781 1.1628 1.86065 -0.668898 151.313048 1.324002 -109.072501 129.361963 47.296258 -118.699441 -3.154687 0.728352 -0.354621 0.001192 -0.018608 0.005313 156.580624 -34.931861 -175.975595 11.662546 -23.130957 11.07001 -15.399251 42.850844 -8.466023 -0.005768 -0.000152 -0.005768 -87.556824 -62.994558 -180.0 -88.885323 -6.004544 -178.1031 -6.501067 28.603809 -94.978572 0.002857 -0.001938 0.001428 8.050693 19.076711 156.598584 18.46276 -25.152817 72.43113 -27.608808 27.325389 169.881985
-0.9171 49.7981 0.40850000000000003 11.578753 -24.368914 5.518794 -17.973293 8.250804 87.625169 -9.913027 -5.521851 -84.920529 -12.627279 31.229032 -118.950854 39.627911 26.171777 75.396496 0.000329 0.0 0.002984 0.000329 0.0 0.002984 4.238503 -44.74272 -8.64903 66.226337 -17.043695 46.156552 30.674753 8.588541 13.349052 -76.69003 80.017502 62.994539 -10.345715 9.78943 2.450709 -38.212594 22.831072 38.301696 -14.229158 19.203225 9.559828 -153.565131 1.26013 109.32213 78.538662 -80.918327 49.689007 -129.265394 51.99985 118.245226 -70.381117 -72.12919 -87.280582 -149.947179 -26.253037 179.893299 -146.186195 15.331485 -142.712529 -147.396216 11.037619 -141.541235 152.128798 14.112745 -157.555514 -114.932999 -12.568661 -120.535761 -93.120755 31.436623 -69.410345 46.215478 39.880134 -26.454131 107.933182 35.149268 -63.317941 -22.305061 -32.985833 -25.131636 -88.791888 -75.499465 -40.049258 -175.803858 -51.035916 -104.869773 36.037433 51.722178 -29.834034 -179.931294 -49.557361 -141.08404 132.4807 54.10296 -155.533543 140.965879 79.559654 -151.33667 -34.798635 84.365418 -3.823556 -14.446647 41.884683 -7.15953 -0.005835 -0.001456 -0.002917 -85.571158 -61.562869 -85.580461 -96.640342 75.030082 -12.30614 49.767579 72.517053 44.268279 0.005146 0.000341 0.005146 8.149607 19.38426 156.661431 3.687175 -22.643378 -102.494454 120.131149 -37.964698 0.093898
-1.3605 49.9139 0.6034 11.391366 -24.460444 6.226523 -14.828708 10.588503 -0.0 2.435701 -12.745983 3.060901 -14.693866 21.344095 -59.537306 36.107719 -10.173702 28.688926 0.000248 -0.0 -0.004264 0.001168 0.0 0.00025 -159.221978 -48.380925 170.491228 -124.791285 10.580398 -162.284448 70.295008 -84.345179 90.997542 -11.121273 50.54196 5.703679 -0.491879 0.48456 0.077407 -124.316232 -16.957888 111.246986 -173.602118 -52.69237 119.893066 -169.067541 -35.621359 116.558358 -0.056633 0.167936 0.033254 -13.370485 36.411727 10.632698 -0.022068 -1.725253 -0.541822 10.449976 0.30678 -0.032675 -1.167624 -2.963433 -1.08115 -140.396523 -7.899512 -137.886345 150.169143 21.535446 -155.27574 104.29459 18.795574 -75.903036 20.461627 -17.960662 144.424337 162.109816 1.27567 -143.733541 2.926299 2.861856 -0.521181 -9.069283 -11.306976 5.010331 -12.214823 -21.785191 5.120058 -4.511752 13.207548 -1.745371 171.872058 -41.091173 -145.158319 167.544541 -17.335085 -143.865607 -0.005677 0.876254 -0.276601 153.424218 20.318543 -168.90077 12.372309 -24.158715 11.757031 23.924283 -41.347407 25.122106 179.998034 75.750066 0.001617 149.488715 -11.570895 81.915931 91.275578 3.230775 17.656643 146.981686 62.186214 140.560922 4.3e-05 -0.000424 -5.5e-05 9.696951 19.945312 -128.453991 -11.604278 -16.123021 77.907492 153.5383 28.02736 -76.855428
-1.8958 50.0424 0.8361000000000001 11.304278 -24.522414 6.923485 -11.883381 7.480647 -107.628132 9.565516 2.844661 109.668547 6.525225 24.525691 101.681193 -37.790951 19.747374 -130.288793 0.00218 -0.0 -0.003047 -0.002563 -0.0 0.002405 0.05886 -0.352908 -0.077388 -179.606623 -2.173846 120.36281 177.598362 55.206417 -150.990746 -11.087913 50.398756 5.666698 -94.791118 37.828947 54.284309 72.013689 -47.336719 32.683114 -52.699711 41.368172 42.08856 6.538103 -0.046656 -2.939913 89.036224 -81.391785 59.760607 91.967304 -78.380002 63.172144 -0.022154 -1.726201 -0.541459 9.439378 12.102065 1.567195 -153.206337 41.295616 -148.283129 -161.449608 52.631219 -147.015842 155.809581 -5.555041 -162.267881 -139.916276 14.402541 -137.351008 -75.108054 41.93248 -55.308782 27.675806 16.084704 -7.501951 -4.417771 -4.40025 0.512982 42.985193 28.961194 -36.679678 108.427001 34.16058 -91.742906 177.892647 -33.713294 -113.979231 -23.905213 -61.333568 -1.401454 2.343952 14.699363 -2.754677 73.625336 72.971212 -91.554615 153.028161 -57.326097 172.082487 -8.143967 25.599561 -7.180372 94.950254 -51.87236 93.814684 0.000594 -0.001106 -0.0 -88.760576 -59.75358 -1.775257 84.037184 11.630089 -88.828601 -21.108862 -0.154322 -9.066139 -0.000301 -0.000142 0.000387 9.868893 21.524201 -53.054499 -11.477743 12.087743 84.489747 96.644994 -17.722352 -14.032261
-2.5575 50.1882 1.1202999999999999 11.232895 -24.539221 7.643393 -11.449936 9.129886 -65.29705 10.775603 -5.189682 67.681624 6.505757 24.257387 101.260852 -38.159468 19.534302 -129.508357 -0.00111 0.0 -0.000544 -0.00111 0.0 -0.000544 -153.589292 -75.693267 -178.259095 59.596038 0.896543 0.691005 96.848684 -66.19885 37.960031 166.35373 -10.900175 148.170178 71.83105 -48.263633 25.791982 -55.057662 32.204363 19.651199 -27.172022 30.467963 19.892016 -67.437753 49.162372 48.851461 1.280388 -3.803362 -0.678559 -136.630996 46.310498 125.021134 -145.109813 3.67769 179.715327 -157.162864 22.835138 178.142604 5.661893 16.872133 5.090016 2.194154 0.103514 -0.008587 -0.118139 -0.714021 0.158138 -13.790368 -48.208142 62.121621 155.968681 78.100382 99.407357 11.987316 -37.404217 9.348091 -88.928563 -50.831868 -37.599275 137.715015 17.818648 -100.611698 -153.096827 -71.859781 -97.054936 9.402591 36.010431 -6.183983 3.999106 10.85412 -2.468207 175.014378 -39.018685 -143.390891 0.000904 -0.018579 0.00536 148.2095 -76.780524 171.08426 -6.226187 18.789788 -5.574768 -2.160894 0.11053 0.019224 0.0 0.000916 -0.000679 -89.096815 -59.273855 0.876091 97.33328 9.373592 119.451085 103.617819 -33.80555 -164.271459 0.000409 -0.000914 0.000102 8.590971 19.972271 156.140157 8.199873 -26.687134 -17.735702 -74.260254 -55.393601 -169.884879
-3.3513 50.368599999999994 1.4479 11.01091 -24.519789 8.456901 -11.015825 6.693982 -120.913142 8.646843 4.806114 122.102322 6.311524 22.154912 90.19794 -38.962198 12.316435 -120.328724 -9.8e-05 -0.0 0.003364 -9.8e-05 -0.0 0.003364 -85.537438 68.183071 88.688978 146.165868 6.199004 -178.03626 18.759678 34.590133 16.710166 -19.421539 62.54228 10.859767 -1.582976 1.556435 0.265191 -128.07515 -23.927234 113.411509 -8.570778 12.509179 5.449865 16.564717 -9.346314 -1.406412 -125.643137 49.839837 115.27428 -4.889481 21.299937 4.702999 -145.119108 0.268228 -179.21149 11.192728 13.761127 -7.377373 -7.145394 -15.707353 -6.727293 9.825355 22.703532 5.488628 153.591618 -75.693433 178.261197 37.156899 26.187584 28.975879 -68.622005 -49.296482 85.608751 116.581555 51.155264 -97.077375 12.926264 12.051772 -3.309308 118.030687 -13.890396 -103.74306 27.101257 30.419266 -19.830551 169.686102 -20.255783 -110.59315 158.520821 -0.192295 -142.14524 163.751916 -6.250587 -143.114267 145.11176 -0.626664 178.930745 154.445142 71.632783 -169.721453 0.530857 -1.363896 0.490383 20.35714 -38.147964 21.199519 -179.978163 75.750429 -0.017968 148.214036 -12.358555 119.99304 95.202904 -37.574276 26.988246 -147.677874 -5.422128 149.258326 -179.954095 75.749505 -0.03777 -47.029339 79.554521 -43.167501 26.761284 -0.344817 77.162968 147.816262 48.862095 135.220698
-4.252800000000001 50.5892 1.809 10.575337 -24.524153 9.404972 -14.417188 8.682612 59.577598 -8.863322 -9.369627 -58.834268 -13.359818 18.301925 -44.738281 30.813064 -18.941955 16.477753 0.004761 0.0 0.00219 -0.001762 0.0 -0.001391 -2.13497 11.143092 2.702774 83.320963 -39.061917 95.607982 -114.564024 40.071834 108.677549 24.90217 -40.74671 18.30157 -166.506923 -4.180829 89.76214 26.431357 -61.26302 24.226002 0.184547 -0.300495 -0.103821 -151.590749 0.561972 109.212403 78.535706 -80.919912 49.686277 -148.247987 31.563556 134.31094 -73.162869 -72.142553 -90.198103 -52.519294 -82.081052 -78.378496 -126.799582 -26.61934 -124.511729 55.092885 82.360835 -17.160821 153.049842 10.023207 -158.667469 -86.033243 -30.058344 -115.328933 -106.807541 38.387714 -89.63952 84.378233 54.310467 -64.656426 10.204556 9.661805 -2.404149 146.747911 -52.532706 -113.200527 64.08679 43.04011 -52.301 -103.919989 -64.907115 -54.202906 -1.281454 -3.803016 0.680692 7.321906 26.19435 -6.028737 -0.004477 1.771283 -0.557163 77.529957 78.798079 -90.796739 151.104329 33.059291 146.772033 -1.109783 -1.994943 2.549212 -179.988858 75.751106 -0.007624 150.009165 -11.30585 -84.60323 -92.672986 14.272106 -165.204081 -147.454227 -9.052316 144.746481 -0.00094 0.001217 0.001209 8.961909 21.98032 58.909113 17.748073 15.316755 161.232363 148.657626 9.724807 -173.493597
-5.2389 50.8374 2.1872 10.015756 -24.601756 10.453268 -11.64057 9.231907 1.407764 1.160536 -13.468957 -0.019566 4.067467 30.226022 141.06705 -25.644671 42.279027 -165.788955 -0.001855 -0.0 0.001081 -0.002335 0.0 -2.5e-05 -9.651171 34.836293 11.198848 -38.152778 -0.571092 37.001688 -61.055877 -71.84347 -40.451835 -0.027828 19.580827 3.228375 -166.631434 -4.30482 89.77153 101.657208 -62.606522 74.806972 -166.822961 -43.973905 122.059877 96.667841 -70.120541 41.057974 -0.058105 0.16775 0.032633 1.856764 4.021397 0.551764 -145.117148 0.185842 -179.186003 11.448309 18.253927 -6.881402 -160.12296 66.422461 -151.115362 15.005863 41.813602 6.503251 -3.446116 -62.740807 13.275195 -3.40895 14.128413 57.440332 168.492765 76.070052 87.50157 12.20759 -33.865942 8.528209 -11.110033 -11.092133 0.639435 170.96202 -83.957929 -118.501436 -24.075819 -42.306463 5.557347 163.343173 -23.133448 -111.586385 -0.542297 -1.589764 0.294762 -10.229857 -21.55774 1.565684 0.059766 -3.510288 1.10454 -9.088289 16.657114 -2.255587 124.85146 -29.040521 122.624063 -2.74545 -0.896856 1.917966 -179.998719 75.749985 -0.001054 149.805525 -11.040554 -99.021613 -89.310603 -11.015801 35.479403 -27.076044 -23.263953 33.298254 0.0 -0.000343 5.8e-05 9.889871 20.506019 137.735939 10.944836 -21.140071 -26.077053 -152.008941 25.424404 70.412946
